<?xml version="1.0" encoding="UTF-8"?>
<svg width="19px" height="19px" viewBox="0 0 19 19" version="1.1" xmlns="http://www.w3.org/2000/svg" xmlns:xlink="http://www.w3.org/1999/xlink">
    <!-- Generator: Sketch 53.2 (72643) - https://sketchapp.com -->
    <title>calendar</title>
    <desc>Created with Sketch.</desc>
    <g id="Page-1" stroke="none" stroke-width="1" fill-rule="evenodd">
        <g id="components/wanneer" transform="translate(-314.000000, -16.000000)" fill-rule="nonzero">
            <g id="Group-31">
                <g id="Group-30" transform="translate(130.000000, 0.000000)">
                    <g id="Group-29">
                        <g id="Group-28">
                            <g id="Group-12">
                                <g id="calendar" transform="translate(184.000000, 16.000000)">
                                    <path d="M6.29399586,10.7239926 C6.29399586,10.4851568 6.10150943,10.2916667 5.86400601,10.2916667 L4.36350442,10.2916667 C4.12627265,10.2916667 3.93374741,10.4851568 3.93374741,10.7239926 L3.93374741,12.2339502 C3.93374741,12.4730984 4.12627265,12.6666667 4.36350442,12.6666667 L5.86400601,12.6666667 C6.10150943,12.6666667 6.29399586,12.4730984 6.29399586,12.2339502 L6.29399586,10.7239926 L6.29399586,10.7239926 Z" id="Path"></path>
                                    <path d="M10.2277433,10.7239926 C10.2277433,10.4851568 10.035199,10.2916667 9.79813792,10.2916667 L8.29729423,10.2916667 C8.06003906,10.2916667 7.86749482,10.4851568 7.86749482,10.7239926 L7.86749482,12.2339502 C7.86749482,12.4730984 8.06003906,12.6666667 8.29729423,12.6666667 L9.79813792,12.6666667 C10.035199,12.6666667 10.2277433,12.4730984 10.2277433,12.2339502 L10.2277433,10.7239926 Z" id="Path"></path>
                                    <path d="M14.1614907,10.7239926 C14.1614907,10.4851568 13.9689654,10.2916667 13.7317337,10.2916667 L12.2312321,10.2916667 C11.9937287,10.2916667 11.8012422,10.4851568 11.8012422,10.7239926 L11.8012422,12.2339502 C11.8012422,12.4730984 11.9937287,12.6666667 12.2312321,12.6666667 L13.7317337,12.6666667 C13.9689654,12.6666667 14.1614907,12.4730984 14.1614907,12.2339502 L14.1614907,10.7239926 Z" id="Path"></path>
                                    <path d="M6.29399586,13.8909363 C6.29399586,13.6516863 6.10150943,13.4583333 5.86400601,13.4583333 L4.36350442,13.4583333 C4.12627265,13.4583333 3.93374741,13.6516863 3.93374741,13.8909363 L3.93374741,15.4007694 C3.93374741,15.639785 4.12627265,15.8333333 4.36350442,15.8333333 L5.86400601,15.8333333 C6.10150943,15.8333333 6.29399586,15.639746 6.29399586,15.4007694 L6.29399586,13.8909363 L6.29399586,13.8909363 Z" id="Path"></path>
                                    <path d="M10.2277433,13.8909363 C10.2277433,13.6516863 10.035199,13.4583333 9.79813792,13.4583333 L8.29729423,13.4583333 C8.06003906,13.4583333 7.86749482,13.6516863 7.86749482,13.8909363 L7.86749482,15.4007694 C7.86749482,15.639785 8.06003906,15.8333333 8.29729423,15.8333333 L9.79813792,15.8333333 C10.035199,15.8333333 10.2277433,15.639746 10.2277433,15.4007694 L10.2277433,13.8909363 Z" id="Path"></path>
                                    <path d="M14.1614907,13.8909363 C14.1614907,13.6516863 13.9689654,13.4583333 13.7319277,13.4583333 L12.2312321,13.4583333 C11.9937287,13.4583333 11.8012422,13.6516863 11.8012422,13.8909363 L11.8012422,15.4007694 C11.8012422,15.639785 11.9937287,15.8333333 12.2312321,15.8333333 L13.7319277,15.8333333 C13.9689654,15.8333333 14.1614907,15.639746 14.1614907,15.4007694 L14.1614907,13.8909363 L14.1614907,13.8909363 Z" id="Path"></path>
                                    <path d="M16.4845864,2.38312076 L16.4845864,4.6450594 C16.4845864,5.66743268 15.6637746,6.49130696 14.6521275,6.49130696 L13.4961597,6.49130696 C12.4844367,6.49130696 11.652745,5.66743268 11.652745,4.6450594 L11.652745,2.375 L6.44249311,2.375 L6.44249311,4.6450594 C6.44249311,5.66743268 5.61083926,6.49130696 4.59926795,6.49130696 L3.44307273,6.49130696 C2.43146351,6.49130696 1.61068962,5.66743268 1.61068962,4.6450594 L1.61068962,2.38312076 C0.72653141,2.41004951 0,3.14930699 0,4.0579513 L0,17.3139843 C0,18.2397128 0.742567037,19 1.65872068,19 L16.4365174,19 C17.3513063,19 18.0952381,18.2381423 18.0952381,17.3139843 L18.0952381,4.0579513 C18.0952381,3.14930699 17.3687446,2.41004951 16.4845864,2.38312076 Z M15.9476772,16.4885012 C15.9476772,16.8885636 15.6266614,17.2131259 15.2305852,17.2131259 L2.83307445,17.2131259 C2.43699826,17.2131259 2.11598245,16.8885636 2.11598245,16.4885012 L2.11598245,9.64128156 C2.11598245,9.24106589 2.43696035,8.91650356 2.83307445,8.91650356 L15.2305473,8.91650356 C15.6266235,8.91650356 15.9476393,9.24106589 15.9476393,9.64128156 L15.9476772,16.4885012 L15.9476772,16.4885012 Z" id="Shape"></path>
                                    <path d="M3.76496121,4.75 L4.8892831,4.75 C5.23054585,4.75 5.50724638,4.4790623 5.50724638,4.1444111 L5.50724638,0.605808227 C5.50724638,0.271120474 5.23054585,0 4.8892831,0 L3.76496121,0 C3.42366118,0 3.14699793,0.271120474 3.14699793,0.605808227 L3.14699793,4.1444111 C3.14699793,4.4790623 3.42366118,4.75 3.76496121,4.75 Z" id="Path"></path>
                                    <path d="M13.205986,4.75 L14.3304322,4.75 C14.671509,4.75 14.9482402,4.4790623 14.9482402,4.1444111 L14.9482402,0.605808227 C14.9482774,0.271120474 14.6715463,0 14.3304322,0 L13.205986,0 C12.8647228,0 12.5879917,0.271120474 12.5879917,0.605808227 L12.5879917,4.1444111 C12.5879917,4.4790623 12.8647228,4.75 13.205986,4.75 Z" id="Path"></path>
                                </g>
                            </g>
                        </g>
                    </g>
                </g>
            </g>
        </g>
    </g>
</svg>