<?xml version="1.0" encoding="UTF-8"?>
<svg width="14px" height="14px" viewBox="0 0 14 14" version="1.1" xmlns="http://www.w3.org/2000/svg" xmlns:xlink="http://www.w3.org/1999/xlink">
    <!-- Generator: Sketch 53.2 (72643) - https://sketchapp.com -->
    <title>Shape</title>
    <desc>Created with Sketch.</desc>
    <g id="Page-1" stroke="none" stroke-width="1" fill-rule="evenodd">
        <g id="elements/nav/1-active" transform="translate(-12.000000, -3.000000)" fill-rule="nonzero">
            <g id="Group-44">
                <g id="Group-20" transform="translate(12.000000, 0.000000)">
                    <g id="Group">
                        <path d="M6.99988333,3 C3.1339989,3 0,6.13409223 0,9.99988333 C0,13.8656744 3.1339989,17 6.99988333,17 C10.8657678,17 14,13.8656744 14,9.99988333 C14,6.13409223 10.8657678,3 6.99988333,3 Z M10.0261271,11.3312589 L7.05845097,11.3312589 C7.04841747,11.3312589 7.03908398,11.3288321 7.02914382,11.3284588 C7.01920365,11.3289255 7.00991683,11.3312589 6.99983666,11.3312589 C6.73247887,11.3312589 6.5157086,11.1144886 6.5157086,10.8471308 L6.5157086,5.90500175 C6.5157086,5.63764396 6.73247887,5.42087368 6.99983666,5.42087368 C7.26719445,5.42087368 7.48396473,5.63764396 7.48396473,5.90500175 L7.48396473,10.3630027 L10.0259404,10.3630027 C10.2932982,10.3630027 10.5100685,10.579773 10.5100685,10.8471308 C10.5100685,11.1144886 10.2934849,11.3312589 10.0261271,11.3312589 Z" id="Shape"></path>
                    </g>
                </g>
            </g>
        </g>
    </g>
</svg>