<?xml version="1.0" encoding="UTF-8"?>
<svg width="10px" height="16px" viewBox="0 0 10 16" version="1.1" xmlns="http://www.w3.org/2000/svg" xmlns:xlink="http://www.w3.org/1999/xlink">
    <!-- Generator: Sketch 53.2 (72643) - https://sketchapp.com -->
    <title>Path</title>
    <desc>Created with Sketch.</desc>
    <g id="Page-1" stroke="none" stroke-width="1" fill="none" fill-rule="evenodd">
        <g id="elements/nav/2-active" transform="translate(-9.000000, -4.000000)" fill="#333B45" fill-rule="nonzero">
            <g id="Group-13" transform="translate(9.000000, 0.000000)">
                <path d="M9.42850729,9.48747947 C9.3829183,9.39360428 9.28473415,9.33335417 9.17657842,9.33335417 L5.8813971,9.33335417 L9.13346603,4.40934455 C9.18769054,4.32721939 9.19101439,4.22321919 9.14210155,4.13815652 C9.09315611,4.0528126 8.99969705,4 8.89848233,4 L4.44930322,4 C4.34391738,4 4.24768844,4.05706261 4.20043752,4.14746904 L0.0293219257,12.1474847 C-0.0137904644,12.2298911 -0.00906537255,12.3280163 0.0415419909,12.4066727 C0.0924426359,12.4853291 0.181697992,12.5333292 0.278187627,12.5333292 L3.13761771,12.5333292 L0.0217943655,19.6298743 C-0.0313221847,19.7512183 0.015961321,19.8919998 0.133013252,19.9608124 C0.178048266,19.9872187 0.228101653,20 0.277894346,20 C0.357699518,20 0.436396738,19.9671874 0.490914522,19.9053436 L9.38930532,9.77198002 C9.45907374,9.69254237 9.47409628,9.58160465 9.42850729,9.48747947 Z" id="Path"></path>
            </g>
        </g>
    </g>
</svg>