<?xml version="1.0" encoding="UTF-8"?>
<svg width="16px" height="20px" viewBox="0 0 16 20" version="1.1" xmlns="http://www.w3.org/2000/svg" xmlns:xlink="http://www.w3.org/1999/xlink">
    <!-- Generator: Sketch 53.2 (72643) - https://sketchapp.com -->
    <title>Shape</title>
    <desc>Created with Sketch.</desc>
    <g id="Page-1" stroke="none" stroke-width="1" fill="none" fill-rule="evenodd">
        <g id="elements/formfield/password" transform="translate(-15.000000, -25.000000)" fill="#333B45" fill-rule="nonzero">
            <g id="Group-17" transform="translate(0.000000, 10.000000)">
                <path d="M30.5555417,22.5 L29.2222083,22.5 L29.2222083,20.8333203 C29.2222083,17.6167969 26.431,15 23,15 C19.569,15 16.7777917,17.6167969 16.7777917,20.8333203 L16.7777917,22.5 L15.4444583,22.5 C15.1987917,22.5 15,22.6863672 15,22.9166797 L15,33.3333594 C15,34.2525391 15.7972917,35 16.7777917,35 L29.22225,35 C30.2027083,35 31,34.2525391 31,33.3333203 L31,22.9166797 C31,22.6863672 30.8012083,22.5 30.5555417,22.5 Z M24.33075,31.2040234 C24.344625,31.3216016 24.3042917,31.4396094 24.2200833,31.5279297 C24.135875,31.6162109 24.0152083,31.6666797 23.8889167,31.6666797 L22.111125,31.6666797 C21.9848333,31.6666797 21.8641667,31.6162109 21.7799583,31.5279297 C21.69575,31.4396484 21.655375,31.3216406 21.6692917,31.2040234 L21.9496667,28.8403516 C21.494375,28.5298828 21.22225,28.03875 21.22225,27.5 C21.22225,26.5808203 22.0195417,25.8333203 23.0000417,25.8333203 C23.9805417,25.8333203 24.7778333,26.5807813 24.7778333,27.5 C24.7778333,28.03875 24.5057083,28.5298828 24.0504167,28.8403516 L24.33075,31.2040234 Z M26.5555417,22.5 L19.4444583,22.5 L19.4444583,20.8333203 C19.4444583,18.9953516 21.0395,17.5 23,17.5 C24.9605,17.5 26.5555417,18.9953516 26.5555417,20.8333203 L26.5555417,22.5 L26.5555417,22.5 Z" id="Shape"></path>
            </g>
        </g>
    </g>
</svg>