<?xml version="1.0" encoding="UTF-8"?>
<svg width="11px" height="17px" viewBox="0 0 11 17" version="1.1" xmlns="http://www.w3.org/2000/svg" xmlns:xlink="http://www.w3.org/1999/xlink">
    <!-- Generator: Sketch 53.2 (72643) - https://sketchapp.com -->
    <title>Group 55</title>
    <desc>Created with Sketch.</desc>
    <g id="Page-1" stroke="none" stroke-width="1" fill="none" fill-rule="evenodd">
        <g id="components/car/non" transform="translate(-228.000000, -58.000000)" fill="#333B45" fill-rule="nonzero">
            <g id="Group" transform="translate(155.000000, 20.000000)">
                <g id="Group-43" transform="translate(0.000000, 32.000000)">
                    <g id="Group-32">
                        <g id="Group-46">
                            <g id="Group-24" transform="translate(73.000000, 4.000000)">
                                <g id="Group-56">
                                    <g id="Group-55" transform="translate(0.000000, 2.000000)">
                                        <g id="baggage" transform="translate(5.500000, 8.500000) scale(-1, 1) translate(-5.500000, -8.500000) ">
                                            <path d="M0.589285714,9.52 L0.589285714,13.5940802 C0.589285714,14.4780057 1.40930704,15.1971028 2.41729014,15.1971028 L2.9307132,15.1971028 L2.9307132,15.8315714 C2.9307132,16.1013143 3.18009118,16.32 3.487692,16.32 C3.79529283,16.32 4.0446708,16.1013143 4.0446708,15.8315714 L4.0446708,15.1971353 L7.30875224,15.1971353 L7.30875224,15.8315714 C7.30875224,16.1013143 7.55813022,16.32 7.86573104,16.32 C8.17333187,16.32 8.42270984,16.1013143 8.42270984,15.8315714 L8.42270984,15.1971353 L8.975567,15.1971353 C9.9835501,15.1971353 10.8035714,14.4780382 10.8035714,13.5941128 L10.8035714,9.52 L0.589285714,9.52 Z" id="Path"></path>
                                            <path d="M10.8035714,8.67 L10.8035714,6.64692986 C10.8035714,5.91071356 10.1805349,5.29432688 9.3531615,5.14811046 L9.3531615,1.1034949 L9.55965211,1.1034949 C9.86725293,1.1034949 10.1166309,0.894516505 10.1166309,0.636747448 C10.1166309,0.378978391 9.86725293,0.17 9.55965211,0.17 L1.83320504,0.17 C1.52560421,0.17 1.27622624,0.378978391 1.27622624,0.636747448 C1.27622624,0.894516505 1.52560421,1.1034949 1.83320504,1.1034949 L2.03969565,1.1034949 L2.03969565,5.14811046 C1.2123222,5.29432688 0.589285714,5.91071356 0.589285714,6.64692986 L0.589285714,8.67 L10.8035714,8.67 L10.8035714,8.67 Z M6.61795,5.11506474 L4.77487001,5.11506474 L4.77487001,5.0740532 C4.77487001,4.64822394 5.18825968,4.30180399 5.69641001,4.30180399 C6.20456033,4.30180399 6.61795,4.64822394 6.61795,5.0740532 L6.61795,5.11506474 Z M6.31959502,7.78523354 L5.07322499,7.78523354 C4.76562416,7.78523354 4.51624619,7.57625515 4.51624619,7.31848609 C4.51624619,7.06071703 4.76562416,6.85173864 5.07322499,6.85173864 L6.31959502,6.85173864 C6.62719585,6.85173864 6.87657382,7.06071703 6.87657382,7.31848609 C6.87657382,7.57625515 6.62719585,7.78523354 6.31959502,7.78523354 Z M8.23916676,1.1034949 L8.23916676,5.11506474 L7.73187047,5.11506474 L7.73187047,5.0740532 C7.73187047,4.13349486 6.81875942,3.36830909 5.69637287,3.36830909 C4.57398632,3.36830909 3.66087528,4.13349486 3.66087528,5.0740532 L3.66087528,5.11506474 L3.15357898,5.11506474 L3.15357898,1.1034949 L8.23916676,1.1034949 Z" id="Shape"></path>
                                        </g>
                                    </g>
                                </g>
                            </g>
                        </g>
                    </g>
                </g>
            </g>
        </g>
    </g>
</svg>