<?xml version="1.0" encoding="UTF-8"?>
<svg width="14px" height="17px" viewBox="0 0 14 17" version="1.1" xmlns="http://www.w3.org/2000/svg" xmlns:xlink="http://www.w3.org/1999/xlink">
    <!-- Generator: Sketch 53.2 (72643) - https://sketchapp.com -->
    <title>man-user</title>
    <desc>Created with Sketch.</desc>
    <g id="Page-1" stroke="none" stroke-width="1" fill-rule="evenodd">
        <g id="components/car/non" transform="translate(-166.000000, -58.000000)" fill-rule="nonzero">
            <g id="Group" transform="translate(155.000000, 20.000000)">
                <g id="Group-43" transform="translate(0.000000, 32.000000)">
                    <g id="Group-32">
                        <g id="Group-46">
                            <g id="Group-44">
                                <g id="man-user" transform="translate(11.000000, 6.400000)">
                                    <path d="M6.17652026,8 C8.10940797,8 9.67647059,6.20915682 9.67647059,4.00002337 C9.67647059,1.79084318 9.16198092,0 6.17652026,0 C3.1910596,0 2.67647059,1.79084318 2.67647059,4.00002337 C2.67647059,6.20915682 4.2435332,8 6.17652026,8 Z" id="Path"></path>
                                    <path d="M0.0584134086,13.66 C0.0572134086,13.4654143 0.0560134086,13.6051757 0.0584134086,13.66 L0.0584134086,13.66 Z" id="Path"></path>
                                    <path d="M13.1817124,13.6598378 C13.1855124,13.6237692 13.1830124,13.4095978 13.1817124,13.6598378 L13.1817124,13.6598378 Z" id="Path"></path>
                                    <path d="M13.1691235,13.6034831 C13.1047746,9.77940323 12.5745005,8.68974806 8.51667547,8 C8.51667547,8 7.94547446,8.68552189 6.61411852,8.68552189 C5.28276257,8.68552189 4.71146294,8 4.71146294,8 C0.697917864,8.68222454 0.135395322,9.7557181 0.0614311031,13.4792523 C0.0553660371,13.7833043 0.0525553968,13.7992802 0.0514705882,13.7639847 C0.0517171356,13.8301173 0.0520129925,13.952444 0.0520129925,14.1657494 C0.0520129925,14.1657494 1.01808431,16 6.61411852,16 C12.2100541,16 13.176224,14.1657494 13.176224,14.1657494 C13.176224,14.0287008 13.1763227,13.933403 13.1764706,13.8685708 C13.1753858,13.8903982 13.1732162,13.8480901 13.1691235,13.6034831 Z" id="Path"></path>
                                </g>
                            </g>
                        </g>
                    </g>
                </g>
            </g>
        </g>
    </g>
</svg>