<?xml version="1.0" encoding="UTF-8"?>
<svg width="15px" height="14px" viewBox="0 0 15 14" version="1.1" xmlns="http://www.w3.org/2000/svg" xmlns:xlink="http://www.w3.org/1999/xlink">
    <!-- Generator: Sketch 53.2 (72643) - https://sketchapp.com -->
    <title>Path</title>
    <desc>Created with Sketch.</desc>
    <g id="Page-1" stroke="none" stroke-width="1" fill="none" fill-rule="evenodd">
        <g id="elements/nav/4-active" transform="translate(-21.000000, -4.000000)" fill="inherit" fill-rule="nonzero">
            <g id="Group" transform="translate(21.000000, 1.000000)">
                <path d="M14.6744754,9.34456381 C14.9697263,9.0642478 15.0739501,8.65284454 14.9465988,8.27040923 C14.8189471,7.88797392 14.486452,7.61497304 14.0779666,7.55703716 L10.4460508,7.0429294 C10.291367,7.02098399 10.1577082,6.92647243 10.0886261,6.78982569 L8.46489659,3.58404046 C8.28257994,3.22384316 7.91254022,3 7.50015018,3 C7.08806049,3 6.71802077,3.22384316 6.53570413,3.58404046 L4.91167429,6.7901183 C4.8425922,6.92676504 4.70863302,7.0212766 4.55394921,7.043222 L0.922033397,7.55732977 C0.51384835,7.61497304 0.181052889,7.88826652 0.0534012003,8.27070184 C-0.0739501314,8.65313715 0.0302737179,9.0645404 0.325524565,9.34485641 L2.95334721,11.8401956 C3.06538034,11.946704 3.11674137,12.1000293 3.09030996,12.2498432 L2.47037329,15.773398 C2.41540797,16.0835598 2.4989072,16.385236 2.70495204,16.6231242 C3.02513251,16.9938553 3.58409673,17.106801 4.03102782,16.8779835 L7.27908749,15.214229 C7.41484881,15.1448815 7.5857519,15.1454667 7.72121287,15.214229 L10.9695729,16.8779835 C11.1275606,16.9590352 11.2960609,17 11.4699675,17 C11.7874448,17 12.0884024,16.8624754 12.2953483,16.6231242 C12.5016935,16.385236 12.5848924,16.0829745 12.5299271,15.773398 L11.90969,12.2498432 C11.8832586,12.0997367 11.9346197,11.946704 12.0466528,11.8401956 L14.6744754,9.34456381 Z" id="Path"></path>
            </g>
        </g>
    </g>
</svg>