<?xml version="1.0" encoding="UTF-8"?>
<svg width="8px" height="17px" viewBox="0 0 8 17" version="1.1" xmlns="http://www.w3.org/2000/svg" xmlns:xlink="http://www.w3.org/1999/xlink">
    <!-- Generator: Sketch 53.2 (72643) - https://sketchapp.com -->
    <title>stripped-tie</title>
    <desc>Created with Sketch.</desc>
    <g id="Page-1" stroke="none" stroke-width="1" fill="none" fill-rule="evenodd">
        <g id="elements/nav/3-active" transform="translate(-5.000000, -3.000000)" fill="#333B45" fill-rule="nonzero">
            <g id="Group-22" transform="translate(5.000000, 0.000000)">
                <g id="stripped-tie" transform="translate(0.000000, 3.000000)">
                    <path d="M6.28227219,2.40278098 C6.25183432,2.80573487 5.90745562,3.13544669 5.51692308,3.13544669 L2.48733728,3.13544669 C2.09680473,3.13544669 1.7523787,2.80573487 1.72198817,2.40278098 L1.59592899,0.732616715 C1.56549112,0.329662824 1.86011834,0 2.25065089,0 L5.75360947,0 C6.14414201,0 6.43876923,0.329711816 6.4083787,0.732616715 L6.28227219,2.40278098 Z" id="Path"></path>
                    <path d="M7.96899408,12.6457954 L6.36657988,4.72697983 C6.28653254,4.33137464 5.90149112,4.00768876 5.51095858,4.00768876 L2.48137278,4.00768876 C2.09084024,4.00768876 1.70579882,4.33137464 1.62575148,4.72697983 L0.0233372781,12.6457954 C-0.0567100592,13.0414006 0.112994083,13.588879 0.400473373,13.8624467 L3.47346746,16.7868876 C3.76094675,17.0605043 4.23133728,17.0605043 4.51881657,16.7868876 L7.59181065,13.8624467 C7.87933728,13.588928 8.04904142,13.0414006 7.96899408,12.6457954 Z" id="Shape"></path>
                </g>
            </g>
        </g>
    </g>
</svg>